<svg width="25" height="24" viewBox="0 0 25 24" fill="none" xmlns="http://www.w3.org/2000/svg">
  <path fill-rule="evenodd" clip-rule="evenodd" d="M8.00021 16.9998C8.00026 17.1975 8.05893 17.3908 8.16881 17.5552C8.2787 17.7197 8.43486 17.8478 8.61756 17.9235C8.80026 17.9991 9.00129 18.0189 9.19524 17.9804C9.3892 17.9418 9.56736 17.8466 9.70721 17.7068L17.7072 12.7068C17.8947 12.5193 18 12.265 18 11.9998C18 11.7346 17.8947 11.4803 17.7072 11.2928L9.70721 6.29279C9.56736 6.15298 9.3892 6.05777 9.19524 6.0192C9.00129 5.98064 8.80026 6.00044 8.61756 6.07611C8.43486 6.15178 8.2787 6.27992 8.16881 6.44433C8.05893 6.60874 8.00026 6.80204 8.00021 6.99979L8.00021 16.9998Z" fill="white"/>
</svg>
