<svg width="25" height="24" viewBox="0 0 25 24" fill="none" xmlns="http://www.w3.org/2000/svg">
  <path opacity="0.4" d="M4.04585 11.3412H12.5239C12.9161 11.3412 13.2344 11.6595 13.2344 12.0517C13.2344 12.4439 12.9161 12.7622 12.5239 12.7622H4.04585C3.65364 12.7622 3.33533 12.4439 3.33533 12.0517C3.33533 11.6595 3.65364 11.3412 4.04585 11.3412" fill="#E2CBEB"/>
  <mask id="mask0_995_27" style="mask-type:luminance" maskUnits="userSpaceOnUse" x="11" y="6" width="10" height="12">
    <path fill-rule="evenodd" clip-rule="evenodd" d="M11.8135 17.5V6.6036H20.753V17.5H11.8135Z" fill="white"/>
  </mask>
  <g mask="url(#mask0_995_27)">
    <path d="M12.5241 6.60332C12.6567 6.60332 12.7874 6.64027 12.903 6.71227L20.4213 11.4501C20.6279 11.5808 20.7539 11.8072 20.7539 12.0516C20.7539 12.2961 20.6279 12.5225 20.4213 12.6532L12.903 17.391C12.6842 17.5284 12.4075 17.5369 12.1811 17.4109C11.9537 17.2858 11.8135 17.0481 11.8135 16.7894V7.31384C11.8135 7.05521 11.9537 6.81742 12.1811 6.69237C12.2882 6.63269 12.4066 6.60332 12.5241 6.60332" fill="#E2CBEB"/>
  </g>
</svg>
