<svg width="56" height="55" viewBox="0 0 56 55" fill="none" xmlns="http://www.w3.org/2000/svg">
  <path d="M42.8543 34.7016C42.5535 31.2125 38.9871 28.8793 38.9871 28.8793C38.9871 28.8793 43.5332 27.6461 44.0016 22.2579C44.2981 18.8204 42.1324 15.2325 36.6969 13.634L38.5703 6.55708L34.1102 5.37544L32.241 12.4352L28.5414 11.4555L30.4106 4.39575L25.9418 3.21411L24.0727 10.2739L16.8883 8.37036L15.7067 12.8262L20.0809 13.9821L14.3746 35.5395L10.0004 34.375L8.74573 39.1016L15.9301 41.0051L14.061 48.0778L18.5469 49.2852L20.4203 42.2125L24.1199 43.1922L22.2293 50.2735L26.711 51.4465L28.5844 44.3739L29.6199 44.6446C38.3512 46.836 43.3699 40.7172 42.8543 34.7016ZM27.4758 15.9415C27.4758 15.9415 29.2891 16.4098 31.893 17.1102C34.3637 17.7762 36.2457 19.959 35.6656 22.4211C35.0856 24.8833 32.5117 26.4516 29.809 25.7813C27.3297 25.1625 25.1942 24.561 25.1942 24.561L27.4758 15.9415ZM27.6778 39.0629C25.0996 38.4356 21.7696 37.4989 21.7696 37.4989L24.1328 28.5485C24.1328 28.5485 27.1407 29.4079 29.8176 30.0524C33.0188 30.843 34.9739 32.9442 34.2692 35.7586C33.5645 38.5731 31.1539 39.9094 27.6778 39.0629Z" fill="white"/>
</svg>
