<?xml version="1.0" standalone="no"?>
<!DOCTYPE svg PUBLIC "-//W3C//DTD SVG 20010904//EN"
 "http://www.w3.org/TR/2001/REC-SVG-20010904/DTD/svg10.dtd">
<svg version="1.0" xmlns="http://www.w3.org/2000/svg"
 width="512.000000pt" height="512.000000pt" viewBox="0 0 512.000000 512.000000"
 preserveAspectRatio="xMidYMid meet">

<g transform="translate(0.000000,512.000000) scale(0.100000,-0.100000)"
fill="#000000" stroke="none">
<path d="M1695 4786 c-72 -33 -95 -83 -95 -210 l0 -93 -172 -6 c-194 -6 -269
-21 -392 -83 -89 -45 -117 -65 -195 -139 -107 -101 -190 -244 -225 -385 -28
-114 -56 -772 -56 -1315 0 -472 28 -1174 51 -1310 54 -306 328 -580 634 -634
134 -23 846 -51 1315 -51 481 0 1179 27 1315 51 301 53 566 312 629 616 43
206 68 1254 46 1928 -21 630 -33 733 -106 878 -74 146 -203 278 -342 351 -139
71 -209 87 -409 93 l-171 5 -4 109 c-3 116 -12 139 -72 183 -39 29 -133 29
-172 0 -60 -44 -69 -67 -72 -185 l-4 -109 -638 0 -638 0 -4 109 c-3 118 -12
141 -70 184 -34 25 -113 32 -153 13z m-93 -735 c2 -92 6 -114 24 -137 39 -53
71 -69 134 -69 63 0 95 16 134 69 18 23 22 45 24 137 l4 109 638 0 638 0 4
-109 c3 -118 12 -141 72 -185 39 -29 133 -29 172 0 60 44 69 67 72 185 l4 109
124 0 c212 0 324 -40 432 -157 92 -100 131 -215 132 -390 l0 -93 -1650 0
-1650 0 0 93 c0 172 41 293 130 389 105 115 218 157 427 157 l131 1 4 -109z
m2633 -1118 c12 -427 -8 -1333 -36 -1578 -27 -241 -196 -409 -439 -434 -452
-48 -1966 -47 -2405 0 -238 25 -408 195 -434 434 -28 247 -48 1149 -36 1578
l7 267 1668 0 1668 0 7 -267z"/>
<path d="M1680 2707 c-49 -16 -133 -102 -148 -153 -28 -94 -8 -169 63 -239
102 -103 243 -101 338 5 90 100 90 220 0 320 -65 72 -158 97 -253 67z"/>
<path d="M2480 2707 c-49 -16 -133 -102 -148 -153 -28 -94 -8 -169 63 -239
102 -103 243 -101 338 5 90 100 90 220 0 320 -65 72 -158 97 -253 67z"/>
<path d="M3280 2707 c-49 -16 -133 -102 -148 -153 -28 -94 -8 -169 63 -239
102 -103 243 -101 338 5 90 100 90 220 0 320 -65 72 -158 97 -253 67z"/>
<path d="M1680 1907 c-49 -16 -133 -102 -148 -153 -28 -94 -8 -169 63 -239
102 -103 243 -101 338 5 90 100 90 220 0 320 -65 72 -158 97 -253 67z"/>
<path d="M2480 1907 c-49 -16 -133 -102 -148 -153 -28 -94 -8 -169 63 -239
102 -103 243 -101 338 5 90 100 90 220 0 320 -65 72 -158 97 -253 67z"/>
<path d="M3280 1907 c-49 -16 -133 -102 -148 -153 -28 -94 -8 -169 63 -239
102 -103 243 -101 338 5 90 100 90 220 0 320 -65 72 -158 97 -253 67z"/>
</g>
</svg>
