<svg xmlns="http://www.w3.org/2000/svg" width="24" height="24" viewBox="0 0 24 24" fill="none">
  <path opacity="0.4" d="M16.334 1.99976H7.665C4.276 1.99976 2 4.37776 2 7.91676V16.0838C2 19.6218 4.276 21.9998 7.665 21.9998H16.333C19.722 21.9998 22 19.6218 22 16.0838V7.91676C22 4.37776 19.723 1.99976 16.334 1.99976Z" fill="white"/>
  <path fill-rule="evenodd" clip-rule="evenodd" d="M11.3134 11.2484H17.0134C17.4234 11.2484 17.7634 11.5884 17.7634 11.9984V13.8484C17.7634 14.2684 17.4234 14.5984 17.0134 14.5984C16.5934 14.5984 16.2634 14.2684 16.2634 13.8484V12.7484H14.9334V13.8484C14.9334 14.2684 14.5934 14.5984 14.1834 14.5984C13.7634 14.5984 13.4334 14.2684 13.4334 13.8484V12.7484H11.3134C10.9934 13.8184 10.0134 14.5984 8.8434 14.5984C7.4034 14.5984 6.2334 13.4384 6.2334 11.9984C6.2334 10.5684 7.4034 9.39844 8.8434 9.39844C10.0134 9.39844 10.9934 10.1784 11.3134 11.2484ZM7.7334 11.9984C7.7334 12.6084 8.2334 13.0984 8.8434 13.0984C9.4434 13.0984 9.9434 12.6084 9.9434 11.9984C9.9434 11.3884 9.4434 10.8984 8.8434 10.8984C8.2334 10.8984 7.7334 11.3884 7.7334 11.9984Z" fill="white"/>
</svg>
