<svg width="16" height="17" viewBox="0 0 16 17" fill="none" xmlns="http://www.w3.org/2000/svg">
  <path d="M0.351988 16.148C-0.117329 15.6787 -0.117329 14.9178 0.351988 14.4484L13.9484 0.851989C14.4177 0.38267 15.1786 0.38267 15.6479 0.85199C16.1172 1.32131 16.1172 2.08223 15.6479 2.55155L2.05153 16.148C1.58222 16.6173 0.821304 16.6173 0.351988 16.148Z" fill="white"/>
  <path d="M15.648 16.148C15.1787 16.6173 14.4178 16.6173 13.9485 16.148L0.352097 2.55156C-0.11722 2.08224 -0.117219 1.32132 0.352097 0.852002C0.821414 0.382683 1.58233 0.382683 2.05164 0.852002L15.648 14.4485C16.1173 14.9178 16.1173 15.6787 15.648 16.148Z" fill="white"/>
</svg>
