<svg xmlns="http://www.w3.org/2000/svg" width="19" height="20" viewBox="0 0 19 20" fill="none">
  <path d="M4.09998 9.39677C4.09998 6.67077 4.09998 5.30777 4.94298 4.46077C5.78698 3.61377 7.14398 3.61377 9.85998 3.61377H12.74C15.455 3.61377 16.812 3.61377 17.656 4.46077C18.5 5.30777 18.5 6.67077 18.5 9.39677V14.2168C18.5 16.9428 18.5 18.3058 17.656 19.1528C16.813 19.9998 15.455 19.9998 12.74 19.9998H9.85998C7.14398 19.9998 5.78698 19.9998 4.94298 19.1528C4.09998 18.3058 4.09998 16.9428 4.09998 14.2168V9.39677Z" fill="white"/>
  <path opacity="0.5" d="M1.672 1.172C0.5 2.343 0.5 4.229 0.5 8V10C0.5 13.771 0.5 15.657 1.672 16.828C2.289 17.446 3.105 17.738 4.292 17.876C4.1 17.036 4.1 15.88 4.1 14.216V9.397C4.1 6.671 4.1 5.308 4.943 4.461C5.787 3.614 7.144 3.614 9.86 3.614H12.74C14.392 3.614 15.54 3.614 16.378 3.804C16.24 2.611 15.948 1.792 15.328 1.172C14.157 -1.19209e-07 12.271 0 8.5 0C4.729 0 2.843 -1.19209e-07 1.672 1.172Z" fill="white"/>
</svg>
