<svg width="139" height="87" viewBox="0 0 139 87" fill="none" xmlns="http://www.w3.org/2000/svg">
  <path opacity="0.4" d="M68.6395 52.2367V25.0287C68.6395 23.1244 68.1398 21.2537 67.1905 19.6045C66.2412 17.9552 64.8757 16.5855 63.2314 15.6331L37.9207 0.968923C36.8243 0.334171 35.5806 0 34.3146 0C33.0486 0 31.8049 0.334171 30.7085 0.968923L5.39788 15.6228C3.75391 16.5774 2.38956 17.9493 1.44201 19.6004C0.494471 21.2515 -0.00286501 23.1237 1.24153e-05 25.0287V52.247C-1.92179e-05 54.1513 0.499724 56.022 1.44903 57.6713C2.39834 59.3205 3.76378 60.6902 5.40816 61.6426L30.7188 76.2965C31.8152 76.9312 33.0589 77.2654 34.3249 77.2654C35.5909 77.2654 36.8346 76.9312 37.931 76.2965L63.2416 61.6426C64.8856 60.688 66.2499 59.3161 67.1975 57.665C68.145 56.0139 68.6424 54.1417 68.6395 52.2367Z" fill="#4796F2"/>
  <path opacity="0.6" d="M34.3147 1.07604C35.3922 1.077 36.4507 1.36117 37.3845 1.90021L62.7013 16.5582C64.1804 17.4142 65.4087 18.6456 66.2628 20.1284C67.1169 21.6113 67.5667 23.2935 67.567 25.006V52.245C67.5667 53.9574 67.1169 55.6396 66.2628 57.1225C65.4087 58.6054 64.1804 59.8367 62.7013 60.6928L37.3845 75.3548C36.4511 75.8948 35.3924 76.179 34.3147 76.179C33.2371 76.179 32.1784 75.8948 31.2449 75.3548L5.92812 60.6969C4.44908 59.8408 3.22079 58.6095 2.36669 57.1266C1.51259 55.6437 1.06277 53.9615 1.06244 52.2491V25.0101C1.06277 23.2976 1.51259 21.6154 2.36669 20.1326C3.22079 18.6497 4.44908 17.4183 5.92812 16.5623L31.2449 1.90021C32.1788 1.36117 33.2372 1.077 34.3147 1.07604ZM34.3147 0.000488281C33.0488 0.000621598 31.8052 0.334594 30.7086 0.968895L5.39183 15.6269C3.75134 16.5793 2.38956 17.9476 1.44318 19.5946C0.496803 21.2416 -0.000868347 23.1093 0.00012355 25.0101V52.245C0.000173639 54.1468 0.499397 56.0151 1.44763 57.6622C2.39586 59.3093 3.7597 60.6771 5.40211 61.6282L30.7189 76.2862C31.8154 76.9205 33.0591 77.2544 34.325 77.2544C35.5909 77.2544 36.8346 76.9205 37.9311 76.2862L63.2479 61.6282C64.8903 60.6771 66.2541 59.3093 67.2024 57.6622C68.1506 56.0151 68.6498 54.1468 68.6499 52.245V25.0101C68.6498 23.1083 68.1506 21.2399 67.2024 19.5928C66.2541 17.9458 64.8903 16.578 63.2479 15.6269L37.9208 0.968895C36.8243 0.334594 35.5806 0.000621598 34.3147 0.000488281Z" fill="url(#paint0_linear_554_194)"/>
  <path fill-rule="evenodd" clip-rule="evenodd" d="M38.1674 39.942C37.9516 39.9585 36.84 40.0245 34.3578 40.0245C32.377 40.0245 30.9818 39.9668 30.4908 39.942C22.8635 39.6062 17.1697 38.2751 17.1697 36.6804C17.1697 35.0856 22.8635 33.7566 30.4908 33.4146V38.6275C30.9901 38.6625 32.4181 38.747 34.3948 38.747C36.764 38.747 37.9496 38.6481 38.1715 38.6295V33.4207C45.7844 33.7607 51.4638 35.0938 51.4638 36.6824C51.4638 38.271 45.7844 39.6041 38.1715 39.942M38.1715 32.8809V28.2264H48.7926V21.1282H19.8697V28.2264H30.4908V32.8789C21.8607 33.2765 15.3677 34.9908 15.3677 37.0451C15.3677 39.0993 21.8587 40.8115 30.4908 41.2113V56.1268H38.1674V41.2071C46.7851 40.8095 53.2617 39.0973 53.2617 37.0451C53.2617 34.9929 46.7851 33.2703 38.1674 32.8809" fill="white"/>
  <path opacity="0.6" d="M48.7883 21.1282V28.2264H38.1673V32.881C46.7849 33.2786 53.2616 34.9929 53.2616 37.0451C53.2616 39.0973 46.7849 40.8095 38.1673 41.2072V56.1268H30.4906V41.2113C21.8606 40.8116 15.3676 39.0994 15.3676 37.0451C15.3676 34.9909 21.8586 33.2766 30.4906 32.8789V28.2264H19.8696V21.1282H48.7883ZM30.4906 39.9442C30.9817 39.9689 32.3769 40.0266 34.3577 40.0266C36.8399 40.0266 37.9515 39.9606 38.1673 39.9442C45.7802 39.6063 51.4595 38.2793 51.4595 36.6845C51.4595 35.0898 45.7802 33.7628 38.1673 33.4229V38.6275C37.9453 38.6461 36.7597 38.745 34.3906 38.745C32.418 38.745 30.99 38.6605 30.4865 38.6255V33.4167C22.8592 33.7587 17.1655 35.0918 17.1655 36.6825C17.1655 38.2731 22.8592 39.6083 30.4865 39.9442M49.5342 20.37H19.1237V28.9703H29.7448V32.1598C26.0071 32.3659 14.6196 33.3363 14.6196 37.0389C14.6196 40.7415 26.0051 41.7182 29.7427 41.9242V56.8789H38.9172V41.9242C42.6487 41.7079 54.0116 40.7477 54.0116 37.0492C54.0116 33.3508 42.6487 32.3885 38.9172 32.1722V28.9764H49.5383V20.3762L49.5342 20.37ZM17.9258 36.6825C17.9936 36.5692 18.5052 35.9119 21.4497 35.2402C23.6154 34.7457 26.5373 34.383 29.7427 34.21V39.155C26.5373 38.9799 23.6133 38.6193 21.4476 38.1248C18.5031 37.4531 17.9936 36.7958 17.9258 36.6825ZM38.9172 39.1344V34.21C42.1145 34.3851 45.0261 34.7477 47.1877 35.2402C50.1281 35.9119 50.6356 36.5671 50.7034 36.6825C50.6356 36.7958 50.1322 37.4531 47.1938 38.1248C45.0322 38.6172 42.1165 38.9799 38.9172 39.155V39.1365V39.1344Z" fill="#8097B8"/>
  <path opacity="0.4" d="M138.992 59.1439V39.4445C138.992 38.0657 138.631 36.7113 137.943 35.5172C137.256 34.3231 136.267 33.3314 135.077 32.6418L116.751 22.0245C115.957 21.5649 115.057 21.323 114.14 21.323C113.224 21.323 112.323 21.5649 111.529 22.0245L93.2036 32.6343C92.0133 33.3255 91.0255 34.3188 90.3395 35.5142C89.6534 36.7097 89.2933 38.0652 89.2954 39.4445V59.1514C89.2954 60.5301 89.6572 61.8845 90.3446 63.0786C91.0319 64.2727 92.0205 65.2644 93.2111 65.954L111.537 76.5638C112.331 77.0234 113.231 77.2654 114.148 77.2654C115.064 77.2654 115.965 77.0234 116.759 76.5638L135.084 65.954C136.274 65.2628 137.262 64.2696 137.948 63.0741C138.634 61.8787 138.994 60.5232 138.992 59.1439Z" fill="#47F26D"/>
  <path opacity="0.6" d="M114.14 22.1021C114.92 22.1028 115.687 22.3085 116.363 22.6988L134.693 33.3116C135.764 33.9314 136.653 34.8229 137.271 35.8966C137.89 36.9702 138.216 38.1882 138.216 39.428V59.1499C138.216 60.3897 137.89 61.6077 137.271 62.6813C136.653 63.755 135.764 64.6465 134.693 65.2663L116.363 75.8821C115.687 76.273 114.92 76.4788 114.14 76.4788C113.36 76.4788 112.593 76.273 111.918 75.8821L93.5875 65.2693C92.5166 64.6495 91.6273 63.758 91.0089 62.6843C90.3905 61.6107 90.0648 60.3927 90.0646 59.1528V39.431C90.0648 38.1912 90.3905 36.9732 91.0089 35.8996C91.6273 34.8259 92.5166 33.9344 93.5875 33.3146L111.918 22.6988C112.594 22.3085 113.36 22.1028 114.14 22.1021ZM114.14 21.3234C113.224 21.3235 112.323 21.5653 111.529 22.0245L93.1992 32.6373C92.0114 33.3269 91.0254 34.3176 90.3402 35.5101C89.655 36.7025 89.2947 38.0548 89.2954 39.431V59.1499C89.2954 60.5268 89.6569 61.8796 90.3434 63.0721C91.03 64.2646 92.0175 65.255 93.2066 65.9436L111.537 76.5564C112.331 77.0156 113.231 77.2574 114.148 77.2574C115.064 77.2574 115.965 77.0156 116.759 76.5564L135.089 65.9436C136.278 65.255 137.265 64.2646 137.952 63.0721C138.638 61.8796 139 60.5268 139 59.1499V39.431C139 38.054 138.638 36.7013 137.952 35.5088C137.265 34.3163 136.278 33.3259 135.089 32.6373L116.751 22.0245C115.957 21.5653 115.057 21.3235 114.14 21.3234Z" fill="url(#paint1_linear_554_194)"/>
  <path d="M118.739 51.4514C118.739 49.0906 117.338 48.2815 114.536 47.9436C112.535 47.6735 112.135 47.1344 112.135 46.1897C112.135 45.2449 112.803 44.6381 114.136 44.6381C115.337 44.6381 116.005 45.0426 116.337 46.0552C116.372 46.1531 116.435 46.2379 116.519 46.2981C116.603 46.3583 116.702 46.3911 116.805 46.392H117.872C117.934 46.3936 117.995 46.3826 118.052 46.3595C118.11 46.3363 118.162 46.3016 118.205 46.2575C118.249 46.2133 118.284 46.1606 118.307 46.1025C118.33 46.0444 118.341 45.9822 118.339 45.9196V45.8529C118.209 45.1203 117.844 44.452 117.301 43.9518C116.758 43.4515 116.068 43.1473 115.337 43.0865V41.4682C115.337 41.1981 115.137 40.9958 114.804 40.928H113.802C113.536 40.928 113.336 41.1303 113.269 41.4682V43.0198C111.267 43.2887 110.001 44.6381 110.001 46.3253C110.001 48.5504 111.334 49.4274 114.136 49.7653C116.005 50.1021 116.605 50.5077 116.605 51.587C116.605 52.6651 115.671 53.4076 114.403 53.4076C112.668 53.4076 112.069 52.6662 111.868 51.6537C111.803 51.3847 111.601 51.2491 111.401 51.2491H110.267C110.205 51.2476 110.144 51.2588 110.087 51.2819C110.03 51.3051 109.978 51.3399 109.934 51.384C109.891 51.4282 109.856 51.4808 109.833 51.5388C109.81 51.5968 109.799 51.659 109.801 51.7215V51.7882C110.067 53.4754 111.135 54.6891 113.336 55.027V56.6464C113.336 56.9154 113.536 57.1188 113.869 57.1855H114.871C115.137 57.1855 115.337 56.9832 115.404 56.6464V55.0259C117.406 54.6891 118.739 53.272 118.739 51.4503V51.4514Z" fill="white"/>
  <path d="M110.935 58.5348C105.731 56.6453 103.062 50.7767 104.998 45.5828C105.998 42.7486 108.199 40.5912 110.935 39.5786C111.202 39.4442 111.334 39.2419 111.334 38.904V37.9592C111.334 37.6903 111.202 37.488 110.935 37.4202C110.868 37.4202 110.734 37.4202 110.667 37.4869C109.166 37.9629 107.772 38.7358 106.567 39.7611C105.361 40.7864 104.366 42.0438 103.641 43.4608C102.916 44.8779 102.473 46.4267 102.34 48.018C102.206 49.6093 102.384 51.2117 102.863 52.7329C104.063 56.5119 106.932 59.4129 110.667 60.6266C110.935 60.7611 111.202 60.6266 111.267 60.3565C111.334 60.2898 111.334 60.2209 111.334 60.0864V59.1417C111.334 58.9394 111.135 58.6704 110.935 58.5348ZM118.006 37.488C117.738 37.3524 117.471 37.488 117.406 37.7569C117.339 37.8247 117.339 37.8925 117.339 38.027V38.9718C117.339 39.2419 117.538 39.5108 117.738 39.6464C122.942 41.5359 125.611 47.4045 123.675 52.5984C122.675 55.4327 120.474 57.59 117.738 58.6026C117.471 58.7371 117.339 58.9394 117.339 59.2773V60.222C117.339 60.491 117.471 60.6933 117.738 60.7611C117.805 60.7611 117.939 60.7611 118.006 60.6944C119.507 60.2183 120.901 59.4454 122.106 58.4201C123.312 57.3948 124.307 56.1375 125.032 54.7204C125.757 53.3033 126.2 51.7546 126.333 50.1633C126.467 48.572 126.289 46.9696 125.81 45.4483C124.61 41.6026 121.675 38.7017 118.006 37.488Z" fill="white"/>
  <path d="M68.4715 77.7083C68.9052 77.4124 69.4916 77.5052 69.8405 77.8981C72.0201 80.3517 74.9732 82.1617 78.4545 82.8256C84.7978 84.0354 90.9552 81.1364 94.2445 76.0013C94.5418 75.5372 94.3651 74.9274 93.8834 74.659L92.4502 73.8604C91.9666 73.591 91.3601 73.7683 91.0524 74.2279C89.871 75.9921 88.2304 77.4076 86.3004 78.3152C84.0675 79.3651 81.5612 79.6818 79.1384 79.22C76.7177 78.7583 74.6259 77.5578 73.0171 75.917C72.6061 75.4978 72.7053 74.8197 73.1897 74.4892L76.4958 72.2335C77.2309 71.732 76.9928 70.5913 76.1183 70.4246L66.5231 68.5946C65.9806 68.4911 65.4574 68.8471 65.3544 69.3897L63.5295 79.0114C63.3634 79.8873 64.3396 80.5274 65.0757 80.0252L68.4715 77.7083Z" fill="white"/>
  <defs>
    <linearGradient id="paint0_linear_554_194" x1="34.3147" y1="0.999801" x2="34.3147" y2="76.1976" gradientUnits="userSpaceOnUse">
      <stop stop-color="white"/>
      <stop offset="0.26" stop-color="#DBE2EE"/>
      <stop offset="0.58" stop-color="#B6C4DD"/>
      <stop offset="0.84" stop-color="#9FB2D2"/>
      <stop offset="1" stop-color="#97ABCE"/>
    </linearGradient>
    <linearGradient id="paint1_linear_554_194" x1="114.14" y1="22.0469" x2="114.14" y2="76.4922" gradientUnits="userSpaceOnUse">
      <stop stop-color="white"/>
      <stop offset="0.26" stop-color="#DBE2EE"/>
      <stop offset="0.58" stop-color="#B6C4DD"/>
      <stop offset="0.84" stop-color="#9FB2D2"/>
      <stop offset="1" stop-color="#97ABCE"/>
    </linearGradient>
  </defs>
</svg>
