<svg xmlns="http://www.w3.org/2000/svg" width="24" height="24" viewBox="0 0 24 24" fill="none">
  <path opacity="0.4" d="M16.334 1.99976H7.665C4.276 1.99976 2 4.37776 2 7.91676V16.0838C2 19.6218 4.276 21.9998 7.665 21.9998H16.333C19.722 21.9998 22 19.6218 22 16.0838V7.91676C22 4.37776 19.723 1.99976 16.334 1.99976Z" fill="white"/>
  <path opacity="0.4" d="M16.44 15.8629H13.2765C12.9678 15.8629 12.7168 16.1179 12.7168 16.4315C12.7168 16.7456 12.9678 17 13.2765 17H16.44C16.7486 17 16.9996 16.7456 16.9996 16.4315C16.9996 16.1179 16.7486 15.8629 16.44 15.8629Z" fill="white"/>
  <path d="M11.0606 9.16877L14.0583 11.591C14.1306 11.649 14.1429 11.7553 14.0865 11.8293L10.5326 16.4601C10.3092 16.7461 9.98001 16.908 9.62727 16.9139L7.6872 16.9378C7.58373 16.939 7.49319 16.8674 7.46968 16.7646L7.02875 14.8476C6.95233 14.4953 7.02875 14.131 7.25215 13.8503L10.8236 9.19743C10.8813 9.12278 10.9877 9.10964 11.0606 9.16877Z" fill="white"/>
  <path opacity="0.4" d="M15.4004 10.1475L14.8225 10.8689C14.7643 10.9423 14.6596 10.9543 14.5873 10.8958C13.8848 10.3272 12.0858 8.86825 11.5867 8.46394C11.5138 8.40422 11.5038 8.29792 11.5626 8.22386L12.1199 7.5317C12.6255 6.88074 13.5073 6.82102 14.2187 7.38837L15.0359 8.03932C15.371 8.3021 15.5944 8.64848 15.6708 9.01277C15.759 9.4135 15.6649 9.80706 15.4004 10.1475Z" fill="white"/>
</svg>
