<svg width="24" height="16" viewBox="0 0 24 16" fill="none" xmlns="http://www.w3.org/2000/svg">
  <path fill-rule="evenodd" clip-rule="evenodd" d="M10.4465 8.00881L10.4485 8.48094C10.4648 10.3536 10.5776 12.0243 10.7723 13.0832C10.7723 13.1023 10.9847 14.1524 11.12 14.5019C11.3323 15.0072 11.7163 15.436 12.1978 15.7077C12.5832 15.9016 12.9876 16 13.4108 16C13.7436 15.9846 14.2923 15.8171 14.6839 15.6768L15.0094 15.552C17.165 14.6958 21.2857 11.8979 22.8638 10.1869L22.9802 10.0673L23.4994 9.50688C23.8267 9.07802 23.9998 8.5537 23.9998 7.98972C23.9998 7.48449 23.8456 6.97925 23.5373 6.57096C23.445 6.43868 23.2963 6.26897 23.1639 6.12558L22.6585 5.59652C20.9192 3.83429 17.1533 1.36244 15.2014 0.543418C15.2014 0.525794 13.9883 0.0190931 13.4108 0H13.3338C12.4479 0 11.6203 0.505232 11.1971 1.32183C11.0814 1.54507 10.9705 1.98238 10.8861 2.36644L10.7345 3.09161C10.5614 4.25776 10.4465 6.04663 10.4465 8.00881ZM2.00434 5.97566C0.897444 5.97566 0 6.88185 0 7.99953C0 9.11721 0.897444 10.0234 2.00434 10.0234L6.93664 9.58719C7.805 9.58719 8.50899 8.87781 8.50899 7.99953C8.50899 7.12271 7.805 6.41186 6.93664 6.41186L2.00434 5.97566Z" fill="black"/>
</svg>
