<svg width="46" height="47" viewBox="0 0 46 47" fill="none" xmlns="http://www.w3.org/2000/svg">
  <rect y="0.5" width="46" height="46" rx="8" fill="#332253"/>
  <path fill-rule="evenodd" clip-rule="evenodd" d="M9 16.2273C9 15.504 9.295 14.8103 9.8201 14.2988C10.3452 13.7873 11.0574 13.5 11.8 13.5H34.2C34.9426 13.5 35.6548 13.7873 36.1799 14.2988C36.705 14.8103 37 15.504 37 16.2273V30.7727C37 31.496 36.705 32.1897 36.1799 32.7012C35.6548 33.2127 34.9426 33.5 34.2 33.5H11.8C11.0574 33.5 10.3452 33.2127 9.8201 32.7012C9.295 32.1897 9 31.496 9 30.7727V16.2273ZM14.6 20.7727C14.6 19.8083 14.9933 18.8834 15.6935 18.2014C16.3936 17.5195 17.3432 17.1364 18.3333 17.1364C19.3235 17.1364 20.2731 17.5195 20.9732 18.2014C21.6733 18.8834 22.0667 19.8083 22.0667 20.7727C22.0667 21.7372 21.6733 22.6621 20.9732 23.344C20.2731 24.026 19.3235 24.4091 18.3333 24.4091C17.3432 24.4091 16.3936 24.026 15.6935 23.344C14.9933 22.6621 14.6 21.7372 14.6 20.7727ZM31.4 20.7727H25.8V18.9545H31.4V20.7727ZM31.4 26.2273H25.8V24.4091H31.4V26.2273ZM18.3333 26.2273C17.3187 26.2273 16.324 26.5025 15.4609 27.0221C14.5977 27.5417 13.9002 28.2851 13.4464 29.1691L12.8304 30.3655C12.759 30.5042 12.7253 30.6584 12.7324 30.8134C12.7396 30.9685 12.7873 31.1191 12.8712 31.2511C12.955 31.383 13.0721 31.4919 13.2114 31.5673C13.3506 31.6427 13.5073 31.6821 13.6667 31.6818H23C23.1592 31.6818 23.3157 31.6422 23.4547 31.5666C23.5937 31.4911 23.7105 31.3822 23.7941 31.2503C23.8777 31.1184 23.9253 30.9679 23.9324 30.813C23.9394 30.6581 23.9057 30.5041 23.8344 30.3655L23.2203 29.1691C22.7665 28.2851 22.0689 27.5417 21.2058 27.0221C20.3427 26.5025 19.348 26.2273 18.3333 26.2273Z" fill="white"/>
</svg>
