<svg width="108" height="108" viewBox="0 0 108 108" fill="none" xmlns="http://www.w3.org/2000/svg">
  <path d="M55.504 2.73229C47.6871 3.01517 40.038 5.07912 33.1399 8.76679C26.7051 12.2064 21.0796 16.9814 16.6402 22.7717C10.9947 30.1242 7.44969 38.8705 6.38293 48.0788C5.10717 59.0308 7.39664 70.1022 12.9115 79.6499C13.8106 81.2105 16.1515 79.8605 15.2524 78.2999C11.6728 72.1069 9.50622 65.1994 8.90742 58.0715C7.88764 46.0147 11.408 34.0119 18.7786 24.416C25.6324 15.4771 35.3804 9.19858 46.3537 6.65539C54.1217 4.8519 62.2142 4.98916 69.9166 7.05502C71.6581 7.52482 72.3601 4.91389 70.6186 4.44409C65.6936 3.12477 60.5993 2.54781 55.504 2.73229ZM57.34 9.4499C54.2242 9.44727 51.1168 9.77032 48.0682 10.4138C46.3078 10.7864 46.8667 13.4297 48.6271 13.0571C51.492 12.4525 54.412 12.1484 57.34 12.1499C59.1652 12.1769 59.1652 9.4229 57.34 9.4499ZM37.6111 14.1965C37.4004 14.199 37.1933 14.2508 37.0063 14.3477C22.6261 21.7376 12.79 36.7307 12.79 53.9999C12.763 55.8251 15.517 55.8251 15.49 53.9999C15.49 37.7567 24.7321 23.6951 38.2402 16.7534C39.5254 16.1108 39.0502 14.1695 37.6111 14.1965ZM87.8743 22.0913C87.6066 22.0924 87.3453 22.173 87.1236 22.323C86.9019 22.4729 86.7298 22.6854 86.6291 22.9334C86.5284 23.1814 86.5036 23.4537 86.5581 23.7157C86.6125 23.9778 86.7436 24.2178 86.9347 24.4052C94.6003 32.0675 98.9938 42.4052 99.1902 53.2419C99.3866 64.0786 95.3707 74.5688 87.9877 82.5038C86.5837 83.8214 88.7491 85.8356 89.9614 84.3398C97.8154 75.8916 102.087 64.727 101.879 53.1939C101.67 41.6608 96.9977 30.6578 88.8436 22.499C88.7172 22.3693 88.566 22.2664 88.3991 22.1964C88.2321 22.1263 88.0553 22.0906 87.8743 22.0913ZM100.618 77.6087C100.376 77.6065 100.138 77.6695 99.9282 77.7911C99.7187 77.9127 99.5458 78.0885 99.4276 78.2999C85.9978 101.558 56.2978 109.515 33.04 96.0875C31.4794 95.1884 30.1294 97.5293 31.69 98.4284C56.2114 112.587 87.6096 104.171 101.768 79.6499C101.89 79.4457 101.956 79.2129 101.959 78.9751C101.962 78.7374 101.902 78.5031 101.785 78.2959C101.668 78.0888 101.499 77.9161 101.294 77.7955C101.089 77.6748 100.856 77.6104 100.618 77.6087ZM81.7723 88.2359C81.5144 88.2479 81.2652 88.3331 81.0541 88.4816C79.604 89.4793 78.0927 90.3847 76.5289 91.1924C74.8306 91.9835 76.1347 94.5134 77.7628 93.5954C79.4292 92.7346 81.0398 91.7697 82.585 90.7064C83.7271 89.9504 83.1412 88.1684 81.7723 88.2359ZM65.4616 95.075C65.3853 95.0772 65.3095 95.0862 65.2348 95.102C62.6644 95.5961 60.0238 95.8499 57.34 95.8499C55.5148 95.8229 55.5148 98.5769 57.34 98.5499C60.1966 98.5499 63.01 98.2799 65.7451 97.7534C67.4029 97.4618 67.141 95.0129 65.4616 95.075Z" fill="#01D5BF"/>
  <path d="M57.34 17.3125C47.61 17.3132 38.2788 21.1787 31.3987 28.0588C24.5186 34.9389 20.6531 44.2702 20.6523 54.0001C20.6531 63.73 24.5186 73.0612 31.3987 79.9414C38.2788 86.8215 47.61 90.687 57.34 90.6877C67.0699 90.687 76.4011 86.8215 83.2813 79.9414C90.1614 73.0612 94.0269 63.73 94.0276 54.0001C94.0269 44.2702 90.1614 34.9389 83.2813 28.0588C76.4011 21.1787 67.0699 17.3132 57.34 17.3125ZM72.1333 40.8295C73.1674 40.8295 74.2015 41.2264 74.9953 42.0175C75.3729 42.3929 75.6726 42.8392 75.8771 43.3309C76.0816 43.8225 76.1869 44.3497 76.1869 44.8822C76.1869 45.4147 76.0816 45.9419 75.8771 46.4335C75.6726 46.9252 75.3729 47.3715 74.9953 47.7469L54.7615 67.9861C54.3862 68.3633 53.94 68.6627 53.4486 68.8669C52.9572 69.0712 52.4303 69.1764 51.8981 69.1764C51.366 69.1764 50.839 69.0712 50.3476 68.8669C49.8563 68.6627 49.4101 68.3633 49.0348 67.9861L40.4434 59.3947C40.0662 59.0194 39.7668 58.5732 39.5626 58.0818C39.3583 57.5904 39.2531 57.0635 39.2531 56.5313C39.2531 55.9992 39.3583 55.4723 39.5626 54.9809C39.7668 54.4895 40.0662 54.0433 40.4434 53.668C40.8187 53.2908 41.2649 52.9914 41.7563 52.7871C42.2477 52.5829 42.7745 52.4777 43.3067 52.4777C43.8389 52.4777 44.3658 52.5829 44.8572 52.7871C45.3486 52.9914 45.7948 53.2908 46.1701 53.668L51.8968 59.3947L69.2686 42.0202C69.6435 41.6426 70.0894 41.3427 70.5805 41.1379C71.0717 40.9331 71.5984 40.8274 72.1306 40.8268L72.1333 40.8295Z" fill="#01D5BF"/>
  <path d="M40.4407 53.665C40.0634 54.0405 39.764 54.4869 39.5597 54.9785C39.3554 55.4702 39.2502 55.9973 39.2502 56.5296C39.2502 57.062 39.3554 57.5892 39.5597 58.0808C39.764 58.5724 40.0634 59.0188 40.4407 59.3944L49.0321 67.9831C49.4077 68.36 49.8539 68.659 50.3452 68.8631C50.8366 69.0672 51.3634 69.1722 51.8955 69.1722C52.4275 69.1722 52.9543 69.0672 53.4457 68.8631C53.937 68.659 54.3833 68.36 54.7588 67.9831L74.9981 47.7466C75.3754 47.371 75.6747 46.9246 75.8791 46.4329C76.0834 45.9413 76.1885 45.4142 76.1885 44.8819C76.1885 44.3495 76.0834 43.8223 75.8791 43.3307C75.6747 42.8391 75.3754 42.3927 74.9981 42.0171C74.6225 41.6398 74.1761 41.3404 73.6845 41.1361C73.1929 40.9318 72.6657 40.8267 72.1333 40.8267C71.601 40.8267 71.0738 40.9318 70.5822 41.1361C70.0906 41.3404 69.6442 41.6398 69.2686 42.0171L51.8969 59.3916L46.1701 53.6676C45.7946 53.2903 45.3482 52.9909 44.8566 52.7866C44.365 52.5823 43.8378 52.4771 43.3054 52.4771C42.7731 52.4771 42.2459 52.5823 41.7543 52.7866C41.2627 52.9909 40.8163 53.2876 40.4407 53.665Z" fill="white"/>
  <path d="M57.3399 15.9624C36.3474 15.9624 19.3022 33.0075 19.3022 54C19.3022 74.9925 36.3474 92.0376 57.3399 92.0376C78.3324 92.0376 95.3775 74.9925 95.3775 54C95.3775 33.0075 78.3324 15.9624 57.3399 15.9624ZM57.3399 18.6624C76.8744 18.6624 92.6775 34.4655 92.6775 54C92.6775 73.5345 76.8744 89.3376 57.3399 89.3376C37.8054 89.3376 22.0022 73.5345 22.0022 54C22.0022 34.4655 37.8054 18.6624 57.3399 18.6624ZM72.1332 39.4875C70.7481 39.4875 69.363 40.014 68.3127 41.0643L51.8967 57.4857L47.1258 52.7121C46.1111 51.7037 44.7386 51.1377 43.308 51.1377C41.8774 51.1377 40.5049 51.7037 39.4902 52.7121C38.481 53.7269 37.9144 55.1 37.9144 56.5312C37.9144 57.9625 38.481 59.3356 39.4902 60.3504L48.0789 68.9391C49.0933 69.9482 50.4659 70.5146 51.8967 70.5146C53.3275 70.5146 54.7001 69.9482 55.7145 68.9391L75.951 48.6999C76.9594 47.6852 77.5254 46.3127 77.5254 44.8821C77.5254 43.4515 76.9594 42.079 75.951 41.0643C75.4497 40.5632 74.8544 40.166 74.1992 39.8954C73.5441 39.6248 72.842 39.4862 72.1332 39.4875ZM72.1332 42.1659C72.819 42.1659 73.5048 42.4359 74.0421 42.9732C74.297 43.2215 74.4996 43.5183 74.6379 43.8462C74.7762 44.174 74.8474 44.5263 74.8474 44.8821C74.8474 45.2379 74.7762 45.5901 74.6379 45.918C74.4996 46.2459 74.297 46.5427 74.0421 46.791L53.8056 67.0302C53.5573 67.2851 53.2605 67.4877 52.9326 67.626C52.6048 67.7643 52.2525 67.8356 51.8967 67.8356C51.5409 67.8356 51.1886 67.7643 50.8607 67.626C50.5329 67.4877 50.2361 67.2851 49.9878 67.0302L41.3991 58.4415C41.1438 58.1932 40.9409 57.8962 40.8023 57.5681C40.6637 57.24 40.5923 56.8874 40.5923 56.5312C40.5923 56.1751 40.6637 55.8225 40.8023 55.4944C40.9409 55.1663 41.1438 54.8693 41.3991 54.621C41.6474 54.3661 41.9442 54.1635 42.272 54.0252C42.5999 53.8869 42.9522 53.8156 43.308 53.8156C43.6638 53.8156 44.0161 53.8869 44.3439 54.0252C44.6718 54.1635 44.9686 54.3661 45.2169 54.621L50.9409 60.3504C51.0663 60.4761 51.2152 60.5759 51.3792 60.6439C51.5433 60.712 51.7191 60.747 51.8967 60.747C52.0743 60.747 52.2501 60.712 52.4141 60.6439C52.5781 60.5759 52.7271 60.4761 52.8525 60.3504L70.2216 42.9732C70.4709 42.7189 70.7683 42.5165 71.0965 42.378C71.4246 42.2394 71.777 42.1673 72.1332 42.1659Z" fill="#14324D"/>
</svg>
