<svg width="108" height="108" viewBox="0 0 108 108" fill="none" xmlns="http://www.w3.org/2000/svg">
  <path d="M55.4654 2.73229C47.6486 3.01517 39.9994 5.07912 33.1013 8.76679C26.6665 12.2064 21.0411 16.9814 16.6016 22.7717C10.9561 30.1242 7.41112 38.8705 6.34435 48.0788C5.0686 59.0308 7.35806 70.1022 12.873 79.6499C13.772 81.2105 16.1129 79.8605 15.2138 78.2999C11.6342 72.1069 9.46765 65.1994 8.86885 58.0715C7.84907 46.0147 11.3695 34.0119 18.74 24.416C25.5938 15.4771 35.3419 9.19858 46.3151 6.65539C54.0831 4.8519 62.1756 4.98916 69.878 7.05502C71.6195 7.52482 72.3215 4.91389 70.58 4.44409C65.655 3.12477 60.5607 2.54781 55.4654 2.73229ZM57.3014 9.4499C54.1857 9.44727 51.0782 9.77032 48.0296 10.4138C46.2692 10.7864 46.8281 13.4297 48.5885 13.0571C51.4534 12.4525 54.3735 12.1484 57.3014 12.1499C59.1266 12.1769 59.1266 9.4229 57.3014 9.4499ZM37.5725 14.1965C37.3619 14.199 37.1547 14.2508 36.9677 14.3477C22.5875 21.7376 12.7514 36.7307 12.7514 53.9999C12.7244 55.8251 15.4784 55.8251 15.4514 53.9999C15.4514 37.7567 24.6935 23.6951 38.2016 16.7534C39.4868 16.1108 39.0116 14.1695 37.5725 14.1965ZM87.8357 22.0913C87.568 22.0924 87.3068 22.173 87.0851 22.323C86.8633 22.4729 86.6912 22.6854 86.5905 22.9334C86.4898 23.1814 86.4651 23.4537 86.5195 23.7157C86.5739 23.9778 86.705 24.2178 86.8961 24.4052C94.5617 32.0675 98.9553 42.4052 99.1517 53.2419C99.3481 64.0786 95.3321 74.5688 87.9492 82.5038C86.5452 83.8214 88.7105 85.8356 89.9228 84.3398C97.7768 75.8916 102.049 64.727 101.84 53.1939C101.632 41.6608 96.9592 30.6578 88.805 22.499C88.6786 22.3693 88.5275 22.2664 88.3605 22.1964C88.1935 22.1263 88.0168 22.0906 87.8357 22.0913ZM100.58 77.6087C100.337 77.6065 100.099 77.6695 99.8896 77.7911C99.6801 77.9127 99.5072 78.0885 99.389 78.2999C85.9592 101.558 56.2592 109.515 33.0014 96.0875C31.4408 95.1884 30.0908 97.5293 31.6514 98.4284C56.1728 112.587 87.5711 104.171 101.73 79.6499C101.852 79.4457 101.917 79.2129 101.92 78.9751C101.923 78.7374 101.863 78.5031 101.746 78.2959C101.63 78.0888 101.46 77.9161 101.255 77.7955C101.051 77.6748 100.817 77.6104 100.58 77.6087ZM81.7337 88.2359C81.4759 88.2479 81.2267 88.3331 81.0155 88.4816C79.5655 89.4793 78.0541 90.3847 76.4903 91.1924C74.792 91.9835 76.0961 94.5134 77.7242 93.5954C79.3906 92.7346 81.0013 91.7697 82.5464 90.7064C83.6885 89.9504 83.1026 88.1684 81.7337 88.2359ZM65.423 95.075C65.3467 95.0772 65.2709 95.0862 65.1962 95.102C62.6258 95.5961 59.9852 95.8499 57.3014 95.8499C55.4762 95.8229 55.4762 98.5769 57.3014 98.5499C60.158 98.5499 62.9714 98.2799 65.7065 97.7534C67.3643 97.4618 67.1024 95.0129 65.423 95.075Z" fill="#BF2A2B"/>
  <path d="M57.3014 17.3125C47.5715 17.3132 38.2402 21.1787 31.3601 28.0588C24.48 34.9389 20.6145 44.2702 20.6138 54.0001C20.6145 63.73 24.48 73.0612 31.3601 79.9414C38.2402 86.8215 47.5715 90.687 57.3014 90.6877C67.0313 90.687 76.3626 86.8215 83.2427 79.9414C90.1228 73.0612 93.9883 63.73 93.989 54.0001C93.9883 44.2702 90.1228 34.9389 83.2427 28.0588C76.3626 21.1787 67.0313 17.3132 57.3014 17.3125Z" fill="#BF2A2B"/>
  <path d="M64.8585 56.5317C64.545 56.2182 64.545 55.7255 64.8585 55.412L73.5478 46.7227C75.2946 44.9759 75.2946 42.1541 73.5478 40.4073C71.8009 38.6605 68.9792 38.6605 67.2324 40.4073L58.5431 49.0966C58.2296 49.4101 57.7369 49.4101 57.4233 49.0966L48.8236 40.4969C47.1216 38.7501 44.3446 38.6605 42.553 40.3178C40.7614 42.0198 40.6271 44.8415 42.3291 46.6332L51.1527 55.4568C51.4663 55.7703 51.4663 56.263 51.1527 56.5765L42.4635 65.2658C40.7167 67.0126 40.7167 69.8344 42.4635 71.5812C44.2103 73.328 47.032 73.328 48.7789 71.5812L57.4681 62.8919C57.7817 62.5784 58.2743 62.5784 58.5879 62.8919L67.1876 71.4916C68.8896 73.2384 71.6666 73.328 73.4582 71.6708C75.2498 69.9688 75.3841 67.147 73.6821 65.3554L64.8585 56.5317Z" fill="#931314"/>
  <path d="M45.5988 74C42.5082 74 40 71.4918 40 68.4012C40 66.9232 40.5823 65.4899 41.6572 64.4597L50.0778 56.0392L41.6572 47.6187C39.4625 45.424 39.4625 41.8855 41.6572 39.6908L41.7916 39.5565C44.0311 37.5409 47.4799 37.6305 49.6299 39.7804L58.0056 48.1561L66.4261 39.646C68.6208 37.4513 72.1593 37.4513 74.354 39.646C76.5487 41.8407 76.5487 45.3792 74.354 47.5739L65.9334 55.9944L74.354 64.4149C76.5487 66.6096 76.5487 70.1481 74.354 72.3428L74.2196 72.4771C71.9801 74.4927 68.5313 74.4031 66.3813 72.2532L58.0056 63.8775L49.5851 72.298C48.5101 73.4177 47.0768 74 45.5988 74ZM45.554 40.2731C44.703 40.2731 43.8967 40.5866 43.3145 41.1241C41.9708 42.3782 41.8812 44.5281 43.1353 45.8719L51.9142 54.6507C52.6756 55.4121 52.6756 56.5767 51.9142 57.3381L43.2249 66.0274C41.926 67.3263 41.926 69.4762 43.2249 70.7751C44.5238 72.074 46.6737 72.074 47.9726 70.7751L56.6619 62.0858C57.4233 61.3244 58.5879 61.3244 59.3493 62.0858L67.949 70.6855C69.2479 71.9845 71.3082 72.074 72.6967 70.8647C74.0404 69.6106 74.13 67.4607 72.8759 66.117L64.097 57.3381C63.3356 56.5767 63.3356 55.4121 64.097 54.6507L72.7863 45.9614C74.0852 44.6625 74.13 42.5126 72.7863 41.2137C71.4874 39.9148 69.3375 39.87 68.0386 41.2137L59.3493 49.903C58.5879 50.6644 57.4233 50.6644 56.6619 49.903L48.0622 41.3033C47.3904 40.6314 46.4946 40.2731 45.554 40.2731Z" fill="#AA1B1C"/>
  <path d="M57.3013 15.9624C36.3088 15.9624 19.2637 33.0075 19.2637 54C19.2637 74.9925 36.3088 92.0376 57.3013 92.0376C78.2938 92.0376 95.3389 74.9925 95.3389 54C95.3389 33.0075 78.2938 15.9624 57.3013 15.9624ZM57.3013 18.6624C76.8358 18.6624 92.6389 34.4655 92.6389 54C92.6389 73.5345 76.8358 89.3376 57.3013 89.3376C37.7668 89.3376 21.9637 73.5345 21.9637 54C21.9637 34.4655 37.7668 18.6624 57.3013 18.6624Z" fill="#931314"/>
</svg>
