<svg width="66" height="66" viewBox="0 0 66 66" fill="none" xmlns="http://www.w3.org/2000/svg">
  <path d="M24.9184 3.36719H8.7551C5.77952 3.36719 3.36734 5.77937 3.36734 8.75494V24.9182C3.36734 27.8938 5.77952 30.306 8.7551 30.306H24.9184C27.8939 30.306 30.3061 27.8938 30.3061 24.9182V8.75494C30.3061 5.77937 27.8939 3.36719 24.9184 3.36719Z" fill="white"/>
  <path d="M24.9184 35.6938H8.7551C5.77952 35.6938 3.36734 38.106 3.36734 41.0816V57.2449C3.36734 60.2204 5.77952 62.6326 8.7551 62.6326H24.9184C27.8939 62.6326 30.3061 60.2204 30.3061 57.2449V41.0816C30.3061 38.106 27.8939 35.6938 24.9184 35.6938Z" fill="white"/>
  <path d="M57.2449 3.36719H41.0816C38.106 3.36719 35.6938 5.77937 35.6938 8.75494V24.9182C35.6938 27.8938 38.106 30.306 41.0816 30.306H57.2449C60.2204 30.306 62.6326 27.8938 62.6326 24.9182V8.75494C62.6326 5.77937 60.2204 3.36719 57.2449 3.36719Z" fill="white"/>
  <path d="M38.3877 51.8571C39.1022 51.8571 39.7874 51.5733 40.2926 51.0681C40.7978 50.5629 41.0816 49.8777 41.0816 49.1632V38.3877C41.0816 37.6733 40.7978 36.9881 40.2926 36.4829C39.7874 35.9777 39.1022 35.6938 38.3877 35.6938C37.6733 35.6938 36.9881 35.9777 36.4829 36.4829C35.9777 36.9881 35.6938 37.6733 35.6938 38.3877V49.1632C35.6938 49.8777 35.9777 50.5629 36.4829 51.0681C36.9881 51.5733 37.6733 51.8571 38.3877 51.8571Z" fill="white"/>
  <path d="M59.9387 41.0816H51.8571V38.3877C51.8571 37.6733 51.5733 36.9881 51.0681 36.4829C50.5629 35.9777 49.8777 35.6938 49.1632 35.6938C48.4488 35.6938 47.7636 35.9777 47.2584 36.4829C46.7532 36.9881 46.4694 37.6733 46.4694 38.3877V57.2449H38.3877C37.6733 57.2449 36.9881 57.5287 36.4829 58.0339C35.9777 58.5391 35.6938 59.2243 35.6938 59.9387C35.6938 60.6532 35.9777 61.3384 36.4829 61.8436C36.9881 62.3488 37.6733 62.6326 38.3877 62.6326H49.1632C49.8777 62.6326 50.5629 62.3488 51.0681 61.8436C51.5733 61.3384 51.8571 60.6532 51.8571 59.9387V46.4694H59.9387C60.6532 46.4694 61.3384 46.1855 61.8436 45.6803C62.3488 45.1751 62.6326 44.4899 62.6326 43.7755C62.6326 43.061 62.3488 42.3758 61.8436 41.8706C61.3384 41.3654 60.6532 41.0816 59.9387 41.0816ZM59.9387 51.8571C59.2243 51.8571 58.5391 52.1409 58.0339 52.6461C57.5287 53.1513 57.2449 53.8365 57.2449 54.551V59.9387C57.2449 60.6532 57.5287 61.3384 58.0339 61.8436C58.5391 62.3488 59.2243 62.6326 59.9387 62.6326C60.6532 62.6326 61.3384 62.3488 61.8436 61.8436C62.3488 61.3384 62.6326 60.6532 62.6326 59.9387V54.551C62.6326 53.8365 62.3488 53.1513 61.8436 52.6461C61.3384 52.1409 60.6532 51.8571 59.9387 51.8571Z" fill="white"/>
</svg>
