<svg width="48" height="48" viewBox="0 0 48 48" fill="none" xmlns="http://www.w3.org/2000/svg">
  <path fill-rule="evenodd" clip-rule="evenodd" d="M26.2085 8.35401L29.8633 15.6555C30.2215 16.3723 30.9129 16.8693 31.7147 16.9844L39.8907 18.1612C41.9107 18.4529 42.7146 20.9011 41.2526 22.3039L35.3404 27.9849C34.7593 28.5435 34.4949 29.3466 34.6323 30.1353L36.0276 38.1556C36.3712 40.1397 34.2595 41.6534 32.454 40.7148L25.1464 36.9254C24.43 36.5536 23.572 36.5536 22.8536 36.9254L15.546 40.7148C13.7405 41.6534 11.6288 40.1397 11.9745 38.1556L13.3677 30.1353C13.5051 29.3466 13.2407 28.5435 12.6596 27.9849L6.74736 22.3039C5.28543 20.9011 6.08928 18.4529 8.10933 18.1612L16.2853 16.9844C17.0871 16.8693 17.7806 16.3723 18.1387 15.6555L21.7915 8.35401C22.6953 6.54866 25.3047 6.54866 26.2085 8.35401Z" stroke="#01D5BF" stroke-width="1.5" stroke-linecap="round" stroke-linejoin="round"/>
</svg>
