<svg width="18" height="18" viewBox="0 0 18 18" fill="none" xmlns="http://www.w3.org/2000/svg">
  <path d="M9 18C13.9706 18 18 13.9706 18 9C18 4.02944 13.9706 0 9 0C4.02944 0 0 4.02944 0 9C0 13.9706 4.02944 18 9 18Z" fill="#26A17B"/>
  <path fill-rule="evenodd" clip-rule="evenodd" d="M10.0808 9.77794V9.77682C10.019 9.78132 9.70002 9.80044 8.98846 9.80044C8.42033 9.80044 8.02039 9.78357 7.87977 9.77682V9.77851C5.69277 9.68232 4.06039 9.30151 4.06039 8.84588C4.06039 8.39082 5.69277 8.01001 7.87977 7.91213V9.39938C8.02264 9.4095 8.43214 9.43369 8.99802 9.43369C9.67696 9.43369 10.0173 9.40557 10.0808 9.39994V7.91326C12.2633 8.01057 13.8918 8.39138 13.8918 8.84588C13.8918 9.30151 12.2633 9.68119 10.0808 9.77794ZM10.0808 7.75857V6.42769H13.1262V4.39819H4.83439V6.42769H7.87977V7.75801C5.40477 7.87163 3.54346 8.36213 3.54346 8.94938C3.54346 9.53663 5.40477 10.0266 7.87977 10.1408V14.4056H10.0808V10.1396C12.5519 10.026 14.4087 9.53607 14.4087 8.94938C14.4087 8.36269 12.5519 7.87276 10.0808 7.75857Z" fill="white"/>
</svg>
