<svg width="14" height="16" viewBox="0 0 14 16" fill="none" xmlns="http://www.w3.org/2000/svg">
  <path d="M0.618787 9.51034L9.7496 3.88473C9.9541 3.75939 10.2159 3.77139 10.4074 3.9194C11.2749 4.58743 12.0499 5.2648 12.567 5.83416C12.567 5.83416 13.0125 6.29018 13.2052 6.57953C13.5165 6.97422 13.6663 7.49024 13.6663 7.9916C13.6663 8.5543 13.5022 9.08632 13.1753 9.51168C13.101 9.58768 12.8184 9.92236 12.5514 10.1957C10.9935 11.8971 6.92699 14.7079 4.78822 15.56C4.47691 15.6973 3.64589 15.984 3.21475 16C2.79924 16 2.39806 15.9093 2.01251 15.7107C1.53838 15.4373 1.16716 15.0133 0.95875 14.5106C0.824589 14.1612 0.617485 13.1132 0.617485 13.0825C0.483323 12.3345 0.383027 11.2838 0.333531 10.057C0.324413 9.83703 0.435129 9.62368 0.618787 9.51034Z" fill="#01D5BF"/>
  <path opacity="0.4" d="M1.22905 6.48025C0.826565 6.72959 0.319877 6.41091 0.339415 5.93222C0.387609 4.8095 0.470972 3.82012 0.57257 3.08408C0.588201 3.06808 0.795305 1.76268 1.03367 1.32132C1.44918 0.501284 2.26457 -7.43866e-05 3.14118 -7.43866e-05H3.21412C3.77942 0.0145931 4.98167 0.515951 4.98167 0.546619C5.58735 0.798632 6.37799 1.22532 7.22855 1.73868C7.6115 1.97069 7.62062 2.54005 7.23767 2.77606L1.22905 6.48025Z" fill="#01D5BF"/>
</svg>
